<svg width="574" height="17" viewBox="0 0 574 17" fill="none" xmlns="http://www.w3.org/2000/svg">
<path d="M15.0781 3.625V15H12.7422V3.625H15.0781ZM26.5312 3.625V15H24.1875L19.6172 7.375V15H17.2734V3.625H19.6172L24.1953 11.2578V3.625H26.5312ZM31.0625 3.625V15H28.7266V3.625H31.0625ZM28.8203 2.95312L30.3516 0.546875H32.7969L30.6484 2.95312H28.8203ZM39.8516 11.2266H42.1875C42.1406 11.9922 41.9297 12.6719 41.5547 13.2656C41.1849 13.8594 40.6667 14.3229 40 14.6562C39.3385 14.9896 38.5417 15.1562 37.6094 15.1562C36.8802 15.1562 36.2266 15.0312 35.6484 14.7812C35.0703 14.526 34.5755 14.1615 34.1641 13.6875C33.7578 13.2135 33.4479 12.6406 33.2344 11.9688C33.0208 11.2969 32.9141 10.5443 32.9141 9.71094V8.92188C32.9141 8.08854 33.0234 7.33594 33.2422 6.66406C33.4661 5.98698 33.7839 5.41146 34.1953 4.9375C34.612 4.46354 35.1094 4.09896 35.6875 3.84375C36.2656 3.58854 36.9115 3.46094 37.625 3.46094C38.5729 3.46094 39.3724 3.63281 40.0234 3.97656C40.6797 4.32031 41.1875 4.79427 41.5469 5.39844C41.9115 6.0026 42.1302 6.6901 42.2031 7.46094H39.8594C39.8333 7.0026 39.7422 6.61458 39.5859 6.29688C39.4297 5.97396 39.1927 5.73177 38.875 5.57031C38.5625 5.40365 38.1458 5.32031 37.625 5.32031C37.2344 5.32031 36.8932 5.39323 36.6016 5.53906C36.3099 5.6849 36.0651 5.90625 35.8672 6.20312C35.6693 6.5 35.5208 6.875 35.4219 7.32812C35.3281 7.77604 35.2812 8.30208 35.2812 8.90625V9.71094C35.2812 10.2995 35.3255 10.8177 35.4141 11.2656C35.5026 11.7083 35.638 12.0833 35.8203 12.3906C36.0078 12.6927 36.2474 12.9219 36.5391 13.0781C36.8359 13.2292 37.1927 13.3047 37.6094 13.3047C38.099 13.3047 38.5026 13.2266 38.8203 13.0703C39.138 12.9141 39.3802 12.6823 39.5469 12.375C39.7188 12.0677 39.8203 11.6849 39.8516 11.2266ZM46.2188 3.625V15H43.8828V3.625H46.2188ZM57.7578 9.04688V9.58594C57.7578 10.4505 57.6406 11.2266 57.4062 11.9141C57.1719 12.6016 56.8411 13.1875 56.4141 13.6719C55.987 14.151 55.4766 14.5182 54.8828 14.7734C54.2943 15.0286 53.6406 15.1562 52.9219 15.1562C52.2083 15.1562 51.5547 15.0286 50.9609 14.7734C50.3724 14.5182 49.862 14.151 49.4297 13.6719C48.9974 13.1875 48.6615 12.6016 48.4219 11.9141C48.1875 11.2266 48.0703 10.4505 48.0703 9.58594V9.04688C48.0703 8.17708 48.1875 7.40104 48.4219 6.71875C48.6562 6.03125 48.987 5.44531 49.4141 4.96094C49.8464 4.47656 50.3568 4.10677 50.9453 3.85156C51.5391 3.59635 52.1927 3.46875 52.9062 3.46875C53.625 3.46875 54.2786 3.59635 54.8672 3.85156C55.4609 4.10677 55.9714 4.47656 56.3984 4.96094C56.8307 5.44531 57.1641 6.03125 57.3984 6.71875C57.638 7.40104 57.7578 8.17708 57.7578 9.04688ZM55.3906 9.58594V9.03125C55.3906 8.42708 55.3359 7.89583 55.2266 7.4375C55.1172 6.97917 54.9557 6.59375 54.7422 6.28125C54.5286 5.96875 54.2682 5.73438 53.9609 5.57812C53.6536 5.41667 53.3021 5.33594 52.9062 5.33594C52.5104 5.33594 52.1589 5.41667 51.8516 5.57812C51.5495 5.73438 51.2917 5.96875 51.0781 6.28125C50.8698 6.59375 50.7109 6.97917 50.6016 7.4375C50.4922 7.89583 50.4375 8.42708 50.4375 9.03125V9.58594C50.4375 10.1849 50.4922 10.7161 50.6016 11.1797C50.7109 11.638 50.8724 12.026 51.0859 12.3438C51.2995 12.6562 51.5599 12.8932 51.8672 13.0547C52.1745 13.2161 52.526 13.2969 52.9219 13.2969C53.3177 13.2969 53.6693 13.2161 53.9766 13.0547C54.2839 12.8932 54.5417 12.6562 54.75 12.3438C54.9583 12.026 55.1172 11.638 55.2266 11.1797C55.3359 10.7161 55.3906 10.1849 55.3906 9.58594Z" fill="white"/>
<path d="M110.523 8.25781V10.0859H104.586V8.25781H110.523ZM105.281 3.625V15H102.938V3.625H105.281ZM112.195 3.625V15H109.859V3.625H112.195ZM123.578 9.04688V9.58594C123.578 10.4505 123.461 11.2266 123.227 11.9141C122.992 12.6016 122.661 13.1875 122.234 13.6719C121.807 14.151 121.297 14.5182 120.703 14.7734C120.115 15.0286 119.461 15.1562 118.742 15.1562C118.029 15.1562 117.375 15.0286 116.781 14.7734C116.193 14.5182 115.682 14.151 115.25 13.6719C114.818 13.1875 114.482 12.6016 114.242 11.9141C114.008 11.2266 113.891 10.4505 113.891 9.58594V9.04688C113.891 8.17708 114.008 7.40104 114.242 6.71875C114.477 6.03125 114.807 5.44531 115.234 4.96094C115.667 4.47656 116.177 4.10677 116.766 3.85156C117.359 3.59635 118.013 3.46875 118.727 3.46875C119.445 3.46875 120.099 3.59635 120.688 3.85156C121.281 4.10677 121.792 4.47656 122.219 4.96094C122.651 5.44531 122.984 6.03125 123.219 6.71875C123.458 7.40104 123.578 8.17708 123.578 9.04688ZM121.211 9.58594V9.03125C121.211 8.42708 121.156 7.89583 121.047 7.4375C120.938 6.97917 120.776 6.59375 120.562 6.28125C120.349 5.96875 120.089 5.73438 119.781 5.57812C119.474 5.41667 119.122 5.33594 118.727 5.33594C118.331 5.33594 117.979 5.41667 117.672 5.57812C117.37 5.73438 117.112 5.96875 116.898 6.28125C116.69 6.59375 116.531 6.97917 116.422 7.4375C116.312 7.89583 116.258 8.42708 116.258 9.03125V9.58594C116.258 10.1849 116.312 10.7161 116.422 11.1797C116.531 11.638 116.693 12.026 116.906 12.3438C117.12 12.6562 117.38 12.8932 117.688 13.0547C117.995 13.2161 118.346 13.2969 118.742 13.2969C119.138 13.2969 119.49 13.2161 119.797 13.0547C120.104 12.8932 120.362 12.6562 120.57 12.3438C120.779 12.026 120.938 11.638 121.047 11.1797C121.156 10.7161 121.211 10.1849 121.211 9.58594ZM125.266 3.625H129.508C130.378 3.625 131.125 3.75521 131.75 4.01562C132.38 4.27604 132.865 4.66146 133.203 5.17188C133.542 5.68229 133.711 6.3099 133.711 7.05469C133.711 7.66406 133.607 8.1875 133.398 8.625C133.195 9.05729 132.906 9.41927 132.531 9.71094C132.161 9.9974 131.727 10.2266 131.227 10.3984L130.484 10.7891H126.797L126.781 8.96094H129.523C129.935 8.96094 130.276 8.88802 130.547 8.74219C130.818 8.59635 131.021 8.39323 131.156 8.13281C131.297 7.8724 131.367 7.57031 131.367 7.22656C131.367 6.86198 131.299 6.54688 131.164 6.28125C131.029 6.01562 130.823 5.8125 130.547 5.67188C130.271 5.53125 129.924 5.46094 129.508 5.46094H127.609V15H125.266V3.625ZM131.625 15L129.031 9.92969L131.508 9.91406L134.133 14.8906V15H131.625ZM140.141 5.57031L137.047 15H134.555L138.781 3.625H140.367L140.141 5.57031ZM142.711 15L139.609 5.57031L139.359 3.625H140.961L145.211 15H142.711ZM142.57 10.7656V12.6016H136.562V10.7656H142.57ZM138.82 2.98438L140.352 0.578125H142.797L140.648 2.98438H138.82ZM146.266 3.625H150.508C151.378 3.625 152.125 3.75521 152.75 4.01562C153.38 4.27604 153.865 4.66146 154.203 5.17188C154.542 5.68229 154.711 6.3099 154.711 7.05469C154.711 7.66406 154.607 8.1875 154.398 8.625C154.195 9.05729 153.906 9.41927 153.531 9.71094C153.161 9.9974 152.727 10.2266 152.227 10.3984L151.484 10.7891H147.797L147.781 8.96094H150.523C150.935 8.96094 151.276 8.88802 151.547 8.74219C151.818 8.59635 152.021 8.39323 152.156 8.13281C152.297 7.8724 152.367 7.57031 152.367 7.22656C152.367 6.86198 152.299 6.54688 152.164 6.28125C152.029 6.01562 151.823 5.8125 151.547 5.67188C151.271 5.53125 150.924 5.46094 150.508 5.46094H148.609V15H146.266V3.625ZM152.625 15L150.031 9.92969L152.508 9.91406L155.133 14.8906V15H152.625ZM159.008 3.625V15H156.672V3.625H159.008ZM170.547 9.04688V9.58594C170.547 10.4505 170.43 11.2266 170.195 11.9141C169.961 12.6016 169.63 13.1875 169.203 13.6719C168.776 14.151 168.266 14.5182 167.672 14.7734C167.083 15.0286 166.43 15.1562 165.711 15.1562C164.997 15.1562 164.344 15.0286 163.75 14.7734C163.161 14.5182 162.651 14.151 162.219 13.6719C161.786 13.1875 161.451 12.6016 161.211 11.9141C160.977 11.2266 160.859 10.4505 160.859 9.58594V9.04688C160.859 8.17708 160.977 7.40104 161.211 6.71875C161.445 6.03125 161.776 5.44531 162.203 4.96094C162.635 4.47656 163.146 4.10677 163.734 3.85156C164.328 3.59635 164.982 3.46875 165.695 3.46875C166.414 3.46875 167.068 3.59635 167.656 3.85156C168.25 4.10677 168.76 4.47656 169.188 4.96094C169.62 5.44531 169.953 6.03125 170.188 6.71875C170.427 7.40104 170.547 8.17708 170.547 9.04688ZM168.18 9.58594V9.03125C168.18 8.42708 168.125 7.89583 168.016 7.4375C167.906 6.97917 167.745 6.59375 167.531 6.28125C167.318 5.96875 167.057 5.73438 166.75 5.57812C166.443 5.41667 166.091 5.33594 165.695 5.33594C165.299 5.33594 164.948 5.41667 164.641 5.57812C164.339 5.73438 164.081 5.96875 163.867 6.28125C163.659 6.59375 163.5 6.97917 163.391 7.4375C163.281 7.89583 163.227 8.42708 163.227 9.03125V9.58594C163.227 10.1849 163.281 10.7161 163.391 11.1797C163.5 11.638 163.661 12.026 163.875 12.3438C164.089 12.6562 164.349 12.8932 164.656 13.0547C164.964 13.2161 165.315 13.2969 165.711 13.2969C166.107 13.2969 166.458 13.2161 166.766 13.0547C167.073 12.8932 167.331 12.6562 167.539 12.3438C167.747 12.026 167.906 11.638 168.016 11.1797C168.125 10.7161 168.18 10.1849 168.18 9.58594ZM178.156 12.0234C178.156 11.8203 178.125 11.638 178.062 11.4766C178.005 11.3099 177.896 11.1589 177.734 11.0234C177.573 10.8828 177.346 10.7448 177.055 10.6094C176.763 10.474 176.385 10.3333 175.922 10.1875C175.406 10.0208 174.917 9.83333 174.453 9.625C173.995 9.41667 173.589 9.17448 173.234 8.89844C172.885 8.61719 172.609 8.29167 172.406 7.92188C172.208 7.55208 172.109 7.1224 172.109 6.63281C172.109 6.15885 172.214 5.72917 172.422 5.34375C172.63 4.95312 172.922 4.61979 173.297 4.34375C173.672 4.0625 174.115 3.84635 174.625 3.69531C175.141 3.54427 175.706 3.46875 176.32 3.46875C177.159 3.46875 177.891 3.61979 178.516 3.92188C179.141 4.22396 179.625 4.63802 179.969 5.16406C180.318 5.6901 180.492 6.29167 180.492 6.96875H178.164C178.164 6.63542 178.094 6.34375 177.953 6.09375C177.818 5.83854 177.609 5.63802 177.328 5.49219C177.052 5.34635 176.703 5.27344 176.281 5.27344C175.875 5.27344 175.536 5.33594 175.266 5.46094C174.995 5.58073 174.792 5.74479 174.656 5.95312C174.521 6.15625 174.453 6.38542 174.453 6.64062C174.453 6.83333 174.5 7.00781 174.594 7.16406C174.693 7.32031 174.839 7.46615 175.031 7.60156C175.224 7.73698 175.461 7.86458 175.742 7.98438C176.023 8.10417 176.349 8.22135 176.719 8.33594C177.339 8.52344 177.883 8.73438 178.352 8.96875C178.826 9.20312 179.221 9.46615 179.539 9.75781C179.857 10.0495 180.096 10.3802 180.258 10.75C180.419 11.1198 180.5 11.5391 180.5 12.0078C180.5 12.5026 180.404 12.9453 180.211 13.3359C180.018 13.7266 179.74 14.0573 179.375 14.3281C179.01 14.599 178.576 14.8047 178.07 14.9453C177.565 15.0859 177 15.1562 176.375 15.1562C175.812 15.1562 175.258 15.0833 174.711 14.9375C174.164 14.7865 173.667 14.5599 173.219 14.2578C172.776 13.9557 172.422 13.5703 172.156 13.1016C171.891 12.6328 171.758 12.0781 171.758 11.4375H174.109C174.109 11.7917 174.164 12.0911 174.273 12.3359C174.383 12.5807 174.536 12.7786 174.734 12.9297C174.938 13.0807 175.177 13.1901 175.453 13.2578C175.734 13.3255 176.042 13.3594 176.375 13.3594C176.781 13.3594 177.115 13.3021 177.375 13.1875C177.641 13.0729 177.836 12.9141 177.961 12.7109C178.091 12.5078 178.156 12.2786 178.156 12.0234Z" fill="white"/>
<path d="M221.344 11.2266H223.68C223.633 11.9922 223.422 12.6719 223.047 13.2656C222.677 13.8594 222.159 14.3229 221.492 14.6562C220.831 14.9896 220.034 15.1562 219.102 15.1562C218.372 15.1562 217.719 15.0312 217.141 14.7812C216.562 14.526 216.068 14.1615 215.656 13.6875C215.25 13.2135 214.94 12.6406 214.727 11.9688C214.513 11.2969 214.406 10.5443 214.406 9.71094V8.92188C214.406 8.08854 214.516 7.33594 214.734 6.66406C214.958 5.98698 215.276 5.41146 215.688 4.9375C216.104 4.46354 216.602 4.09896 217.18 3.84375C217.758 3.58854 218.404 3.46094 219.117 3.46094C220.065 3.46094 220.865 3.63281 221.516 3.97656C222.172 4.32031 222.68 4.79427 223.039 5.39844C223.404 6.0026 223.622 6.6901 223.695 7.46094H221.352C221.326 7.0026 221.234 6.61458 221.078 6.29688C220.922 5.97396 220.685 5.73177 220.367 5.57031C220.055 5.40365 219.638 5.32031 219.117 5.32031C218.727 5.32031 218.385 5.39323 218.094 5.53906C217.802 5.6849 217.557 5.90625 217.359 6.20312C217.161 6.5 217.013 6.875 216.914 7.32812C216.82 7.77604 216.773 8.30208 216.773 8.90625V9.71094C216.773 10.2995 216.818 10.8177 216.906 11.2656C216.995 11.7083 217.13 12.0833 217.312 12.3906C217.5 12.6927 217.74 12.9219 218.031 13.0781C218.328 13.2292 218.685 13.3047 219.102 13.3047C219.591 13.3047 219.995 13.2266 220.312 13.0703C220.63 12.9141 220.872 12.6823 221.039 12.375C221.211 12.0677 221.312 11.6849 221.344 11.2266ZM229.844 5.57031L226.75 15H224.258L228.484 3.625H230.07L229.844 5.57031ZM232.414 15L229.312 5.57031L229.062 3.625H230.664L234.914 15H232.414ZM232.273 10.7656V12.6016H226.266V10.7656H232.273ZM237.039 3.625H239.023L241.945 11.9766L244.867 3.625H246.852L242.742 15H241.148L237.039 3.625ZM235.969 3.625H237.945L238.305 11.7656V15H235.969V3.625ZM245.945 3.625H247.93V15H245.586V11.7656L245.945 3.625ZM254.414 10.9453H251.516V9.11719H254.414C254.862 9.11719 255.227 9.04427 255.508 8.89844C255.789 8.7474 255.995 8.53906 256.125 8.27344C256.255 8.00781 256.32 7.70833 256.32 7.375C256.32 7.03646 256.255 6.72135 256.125 6.42969C255.995 6.13802 255.789 5.90365 255.508 5.72656C255.227 5.54948 254.862 5.46094 254.414 5.46094H252.328V15H249.984V3.625H254.414C255.305 3.625 256.068 3.78646 256.703 4.10938C257.344 4.42708 257.833 4.86719 258.172 5.42969C258.51 5.99219 258.68 6.63542 258.68 7.35938C258.68 8.09375 258.51 8.72917 258.172 9.26562C257.833 9.80208 257.344 10.2161 256.703 10.5078C256.068 10.7995 255.305 10.9453 254.414 10.9453ZM267.93 13.1719V15H261.875V13.1719H267.93ZM262.641 3.625V15H260.297V3.625H262.641ZM267.141 8.25781V10.0391H261.875V8.25781H267.141ZM267.922 3.625V5.46094H261.875V3.625H267.922ZM278.641 9.04688V9.58594C278.641 10.4505 278.523 11.2266 278.289 11.9141C278.055 12.6016 277.724 13.1875 277.297 13.6719C276.87 14.151 276.359 14.5182 275.766 14.7734C275.177 15.0286 274.523 15.1562 273.805 15.1562C273.091 15.1562 272.438 15.0286 271.844 14.7734C271.255 14.5182 270.745 14.151 270.312 13.6719C269.88 13.1875 269.544 12.6016 269.305 11.9141C269.07 11.2266 268.953 10.4505 268.953 9.58594V9.04688C268.953 8.17708 269.07 7.40104 269.305 6.71875C269.539 6.03125 269.87 5.44531 270.297 4.96094C270.729 4.47656 271.24 4.10677 271.828 3.85156C272.422 3.59635 273.076 3.46875 273.789 3.46875C274.508 3.46875 275.161 3.59635 275.75 3.85156C276.344 4.10677 276.854 4.47656 277.281 4.96094C277.714 5.44531 278.047 6.03125 278.281 6.71875C278.521 7.40104 278.641 8.17708 278.641 9.04688ZM276.273 9.58594V9.03125C276.273 8.42708 276.219 7.89583 276.109 7.4375C276 6.97917 275.839 6.59375 275.625 6.28125C275.411 5.96875 275.151 5.73438 274.844 5.57812C274.536 5.41667 274.185 5.33594 273.789 5.33594C273.393 5.33594 273.042 5.41667 272.734 5.57812C272.432 5.73438 272.174 5.96875 271.961 6.28125C271.753 6.59375 271.594 6.97917 271.484 7.4375C271.375 7.89583 271.32 8.42708 271.32 9.03125V9.58594C271.32 10.1849 271.375 10.7161 271.484 11.1797C271.594 11.638 271.755 12.026 271.969 12.3438C272.182 12.6562 272.443 12.8932 272.75 13.0547C273.057 13.2161 273.409 13.2969 273.805 13.2969C274.201 13.2969 274.552 13.2161 274.859 13.0547C275.167 12.8932 275.424 12.6562 275.633 12.3438C275.841 12.026 276 11.638 276.109 11.1797C276.219 10.7161 276.273 10.1849 276.273 9.58594ZM289.586 3.625V15H287.242L282.672 7.375V15H280.328V3.625H282.672L287.25 11.2578V3.625H289.586ZM296.391 5.57031L293.297 15H290.805L295.031 3.625H296.617L296.391 5.57031ZM298.961 15L295.859 5.57031L295.609 3.625H297.211L301.461 15H298.961ZM298.82 10.7656V12.6016H292.812V10.7656H298.82ZM306.633 3.625V15H304.297V3.625H306.633ZM310.133 3.625V5.46094H300.852V3.625H310.133ZM320.594 9.04688V9.58594C320.594 10.4505 320.477 11.2266 320.242 11.9141C320.008 12.6016 319.677 13.1875 319.25 13.6719C318.823 14.151 318.312 14.5182 317.719 14.7734C317.13 15.0286 316.477 15.1562 315.758 15.1562C315.044 15.1562 314.391 15.0286 313.797 14.7734C313.208 14.5182 312.698 14.151 312.266 13.6719C311.833 13.1875 311.497 12.6016 311.258 11.9141C311.023 11.2266 310.906 10.4505 310.906 9.58594V9.04688C310.906 8.17708 311.023 7.40104 311.258 6.71875C311.492 6.03125 311.823 5.44531 312.25 4.96094C312.682 4.47656 313.193 4.10677 313.781 3.85156C314.375 3.59635 315.029 3.46875 315.742 3.46875C316.461 3.46875 317.115 3.59635 317.703 3.85156C318.297 4.10677 318.807 4.47656 319.234 4.96094C319.667 5.44531 320 6.03125 320.234 6.71875C320.474 7.40104 320.594 8.17708 320.594 9.04688ZM318.227 9.58594V9.03125C318.227 8.42708 318.172 7.89583 318.062 7.4375C317.953 6.97917 317.792 6.59375 317.578 6.28125C317.365 5.96875 317.104 5.73438 316.797 5.57812C316.49 5.41667 316.138 5.33594 315.742 5.33594C315.346 5.33594 314.995 5.41667 314.688 5.57812C314.385 5.73438 314.128 5.96875 313.914 6.28125C313.706 6.59375 313.547 6.97917 313.438 7.4375C313.328 7.89583 313.273 8.42708 313.273 9.03125V9.58594C313.273 10.1849 313.328 10.7161 313.438 11.1797C313.547 11.638 313.708 12.026 313.922 12.3438C314.135 12.6562 314.396 12.8932 314.703 13.0547C315.01 13.2161 315.362 13.2969 315.758 13.2969C316.154 13.2969 316.505 13.2161 316.812 13.0547C317.12 12.8932 317.378 12.6562 317.586 12.3438C317.794 12.026 317.953 11.638 318.062 11.1797C318.172 10.7161 318.227 10.1849 318.227 9.58594Z" fill="white"/>
<path d="M345.688 3.625H349.93C350.799 3.625 351.547 3.75521 352.172 4.01562C352.802 4.27604 353.286 4.66146 353.625 5.17188C353.964 5.68229 354.133 6.3099 354.133 7.05469C354.133 7.66406 354.029 8.1875 353.82 8.625C353.617 9.05729 353.328 9.41927 352.953 9.71094C352.583 9.9974 352.148 10.2266 351.648 10.3984L350.906 10.7891H347.219L347.203 8.96094H349.945C350.357 8.96094 350.698 8.88802 350.969 8.74219C351.24 8.59635 351.443 8.39323 351.578 8.13281C351.719 7.8724 351.789 7.57031 351.789 7.22656C351.789 6.86198 351.721 6.54688 351.586 6.28125C351.451 6.01562 351.245 5.8125 350.969 5.67188C350.693 5.53125 350.346 5.46094 349.93 5.46094H348.031V15H345.688V3.625ZM352.047 15L349.453 9.92969L351.93 9.91406L354.555 14.8906V15H352.047ZM363.57 13.1719V15H357.516V13.1719H363.57ZM358.281 3.625V15H355.938V3.625H358.281ZM362.781 8.25781V10.0391H357.516V8.25781H362.781ZM363.562 3.625V5.46094H357.516V3.625H363.562ZM370.859 12.0234C370.859 11.8203 370.828 11.638 370.766 11.4766C370.708 11.3099 370.599 11.1589 370.438 11.0234C370.276 10.8828 370.049 10.7448 369.758 10.6094C369.466 10.474 369.089 10.3333 368.625 10.1875C368.109 10.0208 367.62 9.83333 367.156 9.625C366.698 9.41667 366.292 9.17448 365.938 8.89844C365.589 8.61719 365.312 8.29167 365.109 7.92188C364.911 7.55208 364.812 7.1224 364.812 6.63281C364.812 6.15885 364.917 5.72917 365.125 5.34375C365.333 4.95312 365.625 4.61979 366 4.34375C366.375 4.0625 366.818 3.84635 367.328 3.69531C367.844 3.54427 368.409 3.46875 369.023 3.46875C369.862 3.46875 370.594 3.61979 371.219 3.92188C371.844 4.22396 372.328 4.63802 372.672 5.16406C373.021 5.6901 373.195 6.29167 373.195 6.96875H370.867C370.867 6.63542 370.797 6.34375 370.656 6.09375C370.521 5.83854 370.312 5.63802 370.031 5.49219C369.755 5.34635 369.406 5.27344 368.984 5.27344C368.578 5.27344 368.24 5.33594 367.969 5.46094C367.698 5.58073 367.495 5.74479 367.359 5.95312C367.224 6.15625 367.156 6.38542 367.156 6.64062C367.156 6.83333 367.203 7.00781 367.297 7.16406C367.396 7.32031 367.542 7.46615 367.734 7.60156C367.927 7.73698 368.164 7.86458 368.445 7.98438C368.727 8.10417 369.052 8.22135 369.422 8.33594C370.042 8.52344 370.586 8.73438 371.055 8.96875C371.529 9.20312 371.924 9.46615 372.242 9.75781C372.56 10.0495 372.799 10.3802 372.961 10.75C373.122 11.1198 373.203 11.5391 373.203 12.0078C373.203 12.5026 373.107 12.9453 372.914 13.3359C372.721 13.7266 372.443 14.0573 372.078 14.3281C371.714 14.599 371.279 14.8047 370.773 14.9453C370.268 15.0859 369.703 15.1562 369.078 15.1562C368.516 15.1562 367.961 15.0833 367.414 14.9375C366.867 14.7865 366.37 14.5599 365.922 14.2578C365.479 13.9557 365.125 13.5703 364.859 13.1016C364.594 12.6328 364.461 12.0781 364.461 11.4375H366.812C366.812 11.7917 366.867 12.0911 366.977 12.3359C367.086 12.5807 367.24 12.7786 367.438 12.9297C367.641 13.0807 367.88 13.1901 368.156 13.2578C368.438 13.3255 368.745 13.3594 369.078 13.3594C369.484 13.3594 369.818 13.3021 370.078 13.1875C370.344 13.0729 370.539 12.9141 370.664 12.7109C370.794 12.5078 370.859 12.2786 370.859 12.0234ZM381.078 3.625H383.414V11.1406C383.414 12.0156 383.227 12.7526 382.852 13.3516C382.482 13.9505 381.969 14.401 381.312 14.7031C380.661 15.0052 379.911 15.1562 379.062 15.1562C378.214 15.1562 377.458 15.0052 376.797 14.7031C376.141 14.401 375.625 13.9505 375.25 13.3516C374.88 12.7526 374.695 12.0156 374.695 11.1406V3.625H377.039V11.1406C377.039 11.651 377.12 12.0677 377.281 12.3906C377.443 12.7135 377.674 12.9505 377.977 13.1016C378.284 13.2526 378.646 13.3281 379.062 13.3281C379.49 13.3281 379.852 13.2526 380.148 13.1016C380.451 12.9505 380.68 12.7135 380.836 12.3906C380.997 12.0677 381.078 11.651 381.078 11.1406V3.625ZM392.656 13.1719V15H386.93V13.1719H392.656ZM387.688 3.625V15H385.344V3.625H387.688ZM397.305 3.625V15H394.969V3.625H397.305ZM400.805 3.625V5.46094H391.523V3.625H400.805ZM405.922 5.57031L402.828 15H400.336L404.562 3.625H406.148L405.922 5.57031ZM408.492 15L405.391 5.57031L405.141 3.625H406.742L410.992 15H408.492ZM408.352 10.7656V12.6016H402.344V10.7656H408.352ZM415.539 15H413.062L413.078 13.1719H415.539C416.154 13.1719 416.672 13.0339 417.094 12.7578C417.516 12.4766 417.833 12.0677 418.047 11.5312C418.266 10.9948 418.375 10.3464 418.375 9.58594V9.03125C418.375 8.44792 418.312 7.9349 418.188 7.49219C418.068 7.04948 417.888 6.67708 417.648 6.375C417.409 6.07292 417.115 5.84635 416.766 5.69531C416.417 5.53906 416.016 5.46094 415.562 5.46094H413.016V3.625H415.562C416.323 3.625 417.018 3.75521 417.648 4.01562C418.284 4.27083 418.833 4.63802 419.297 5.11719C419.76 5.59635 420.117 6.16927 420.367 6.83594C420.622 7.4974 420.75 8.23438 420.75 9.04688V9.58594C420.75 10.3932 420.622 11.1302 420.367 11.7969C420.117 12.4635 419.76 13.0365 419.297 13.5156C418.839 13.9896 418.289 14.3568 417.648 14.6172C417.013 14.8724 416.31 15 415.539 15ZM414.391 3.625V15H412.047V3.625H414.391ZM431.797 9.04688V9.58594C431.797 10.4505 431.68 11.2266 431.445 11.9141C431.211 12.6016 430.88 13.1875 430.453 13.6719C430.026 14.151 429.516 14.5182 428.922 14.7734C428.333 15.0286 427.68 15.1562 426.961 15.1562C426.247 15.1562 425.594 15.0286 425 14.7734C424.411 14.5182 423.901 14.151 423.469 13.6719C423.036 13.1875 422.701 12.6016 422.461 11.9141C422.227 11.2266 422.109 10.4505 422.109 9.58594V9.04688C422.109 8.17708 422.227 7.40104 422.461 6.71875C422.695 6.03125 423.026 5.44531 423.453 4.96094C423.885 4.47656 424.396 4.10677 424.984 3.85156C425.578 3.59635 426.232 3.46875 426.945 3.46875C427.664 3.46875 428.318 3.59635 428.906 3.85156C429.5 4.10677 430.01 4.47656 430.438 4.96094C430.87 5.44531 431.203 6.03125 431.438 6.71875C431.677 7.40104 431.797 8.17708 431.797 9.04688ZM429.43 9.58594V9.03125C429.43 8.42708 429.375 7.89583 429.266 7.4375C429.156 6.97917 428.995 6.59375 428.781 6.28125C428.568 5.96875 428.307 5.73438 428 5.57812C427.693 5.41667 427.341 5.33594 426.945 5.33594C426.549 5.33594 426.198 5.41667 425.891 5.57812C425.589 5.73438 425.331 5.96875 425.117 6.28125C424.909 6.59375 424.75 6.97917 424.641 7.4375C424.531 7.89583 424.477 8.42708 424.477 9.03125V9.58594C424.477 10.1849 424.531 10.7161 424.641 11.1797C424.75 11.638 424.911 12.026 425.125 12.3438C425.339 12.6562 425.599 12.8932 425.906 13.0547C426.214 13.2161 426.565 13.2969 426.961 13.2969C427.357 13.2969 427.708 13.2161 428.016 13.0547C428.323 12.8932 428.581 12.6562 428.789 12.3438C428.997 12.026 429.156 11.638 429.266 11.1797C429.375 10.7161 429.43 10.1849 429.43 9.58594ZM439.406 12.0234C439.406 11.8203 439.375 11.638 439.312 11.4766C439.255 11.3099 439.146 11.1589 438.984 11.0234C438.823 10.8828 438.596 10.7448 438.305 10.6094C438.013 10.474 437.635 10.3333 437.172 10.1875C436.656 10.0208 436.167 9.83333 435.703 9.625C435.245 9.41667 434.839 9.17448 434.484 8.89844C434.135 8.61719 433.859 8.29167 433.656 7.92188C433.458 7.55208 433.359 7.1224 433.359 6.63281C433.359 6.15885 433.464 5.72917 433.672 5.34375C433.88 4.95312 434.172 4.61979 434.547 4.34375C434.922 4.0625 435.365 3.84635 435.875 3.69531C436.391 3.54427 436.956 3.46875 437.57 3.46875C438.409 3.46875 439.141 3.61979 439.766 3.92188C440.391 4.22396 440.875 4.63802 441.219 5.16406C441.568 5.6901 441.742 6.29167 441.742 6.96875H439.414C439.414 6.63542 439.344 6.34375 439.203 6.09375C439.068 5.83854 438.859 5.63802 438.578 5.49219C438.302 5.34635 437.953 5.27344 437.531 5.27344C437.125 5.27344 436.786 5.33594 436.516 5.46094C436.245 5.58073 436.042 5.74479 435.906 5.95312C435.771 6.15625 435.703 6.38542 435.703 6.64062C435.703 6.83333 435.75 7.00781 435.844 7.16406C435.943 7.32031 436.089 7.46615 436.281 7.60156C436.474 7.73698 436.711 7.86458 436.992 7.98438C437.273 8.10417 437.599 8.22135 437.969 8.33594C438.589 8.52344 439.133 8.73438 439.602 8.96875C440.076 9.20312 440.471 9.46615 440.789 9.75781C441.107 10.0495 441.346 10.3802 441.508 10.75C441.669 11.1198 441.75 11.5391 441.75 12.0078C441.75 12.5026 441.654 12.9453 441.461 13.3359C441.268 13.7266 440.99 14.0573 440.625 14.3281C440.26 14.599 439.826 14.8047 439.32 14.9453C438.815 15.0859 438.25 15.1562 437.625 15.1562C437.062 15.1562 436.508 15.0833 435.961 14.9375C435.414 14.7865 434.917 14.5599 434.469 14.2578C434.026 13.9557 433.672 13.5703 433.406 13.1016C433.141 12.6328 433.008 12.0781 433.008 11.4375H435.359C435.359 11.7917 435.414 12.0911 435.523 12.3359C435.633 12.5807 435.786 12.7786 435.984 12.9297C436.188 13.0807 436.427 13.1901 436.703 13.2578C436.984 13.3255 437.292 13.3594 437.625 13.3594C438.031 13.3594 438.365 13.3021 438.625 13.1875C438.891 13.0729 439.086 12.9141 439.211 12.7109C439.341 12.5078 439.406 12.2786 439.406 12.0234Z" fill="white"/>
<path d="M493.617 3.625V15H491.273L486.703 7.375V15H484.359V3.625H486.703L491.281 11.2578V3.625H493.617ZM505 9.04688V9.58594C505 10.4505 504.883 11.2266 504.648 11.9141C504.414 12.6016 504.083 13.1875 503.656 13.6719C503.229 14.151 502.719 14.5182 502.125 14.7734C501.536 15.0286 500.883 15.1562 500.164 15.1562C499.451 15.1562 498.797 15.0286 498.203 14.7734C497.615 14.5182 497.104 14.151 496.672 13.6719C496.24 13.1875 495.904 12.6016 495.664 11.9141C495.43 11.2266 495.312 10.4505 495.312 9.58594V9.04688C495.312 8.17708 495.43 7.40104 495.664 6.71875C495.898 6.03125 496.229 5.44531 496.656 4.96094C497.089 4.47656 497.599 4.10677 498.188 3.85156C498.781 3.59635 499.435 3.46875 500.148 3.46875C500.867 3.46875 501.521 3.59635 502.109 3.85156C502.703 4.10677 503.214 4.47656 503.641 4.96094C504.073 5.44531 504.406 6.03125 504.641 6.71875C504.88 7.40104 505 8.17708 505 9.04688ZM502.633 9.58594V9.03125C502.633 8.42708 502.578 7.89583 502.469 7.4375C502.359 6.97917 502.198 6.59375 501.984 6.28125C501.771 5.96875 501.51 5.73438 501.203 5.57812C500.896 5.41667 500.544 5.33594 500.148 5.33594C499.753 5.33594 499.401 5.41667 499.094 5.57812C498.792 5.73438 498.534 5.96875 498.32 6.28125C498.112 6.59375 497.953 6.97917 497.844 7.4375C497.734 7.89583 497.68 8.42708 497.68 9.03125V9.58594C497.68 10.1849 497.734 10.7161 497.844 11.1797C497.953 11.638 498.115 12.026 498.328 12.3438C498.542 12.6562 498.802 12.8932 499.109 13.0547C499.417 13.2161 499.768 13.2969 500.164 13.2969C500.56 13.2969 500.911 13.2161 501.219 13.0547C501.526 12.8932 501.784 12.6562 501.992 12.3438C502.201 12.026 502.359 11.638 502.469 11.1797C502.578 10.7161 502.633 10.1849 502.633 9.58594ZM511.242 3.625V15H508.906V3.625H511.242ZM514.742 3.625V5.46094H505.461V3.625H514.742ZM518.57 3.625V15H516.234V3.625H518.57ZM516.328 2.95312L517.859 0.546875H520.305L518.156 2.95312H516.328ZM527.359 11.2266H529.695C529.648 11.9922 529.438 12.6719 529.062 13.2656C528.693 13.8594 528.174 14.3229 527.508 14.6562C526.846 14.9896 526.049 15.1562 525.117 15.1562C524.388 15.1562 523.734 15.0312 523.156 14.7812C522.578 14.526 522.083 14.1615 521.672 13.6875C521.266 13.2135 520.956 12.6406 520.742 11.9688C520.529 11.2969 520.422 10.5443 520.422 9.71094V8.92188C520.422 8.08854 520.531 7.33594 520.75 6.66406C520.974 5.98698 521.292 5.41146 521.703 4.9375C522.12 4.46354 522.617 4.09896 523.195 3.84375C523.773 3.58854 524.419 3.46094 525.133 3.46094C526.081 3.46094 526.88 3.63281 527.531 3.97656C528.188 4.32031 528.695 4.79427 529.055 5.39844C529.419 6.0026 529.638 6.6901 529.711 7.46094H527.367C527.341 7.0026 527.25 6.61458 527.094 6.29688C526.938 5.97396 526.701 5.73177 526.383 5.57031C526.07 5.40365 525.654 5.32031 525.133 5.32031C524.742 5.32031 524.401 5.39323 524.109 5.53906C523.818 5.6849 523.573 5.90625 523.375 6.20312C523.177 6.5 523.029 6.875 522.93 7.32812C522.836 7.77604 522.789 8.30208 522.789 8.90625V9.71094C522.789 10.2995 522.833 10.8177 522.922 11.2656C523.01 11.7083 523.146 12.0833 523.328 12.3906C523.516 12.6927 523.755 12.9219 524.047 13.0781C524.344 13.2292 524.701 13.3047 525.117 13.3047C525.607 13.3047 526.01 13.2266 526.328 13.0703C526.646 12.9141 526.888 12.6823 527.055 12.375C527.227 12.0677 527.328 11.6849 527.359 11.2266ZM533.727 3.625V15H531.391V3.625H533.727ZM540.688 5.57031L537.594 15H535.102L539.328 3.625H540.914L540.688 5.57031ZM543.258 15L540.156 5.57031L539.906 3.625H541.508L545.758 15H543.258ZM543.117 10.7656V12.6016H537.109V10.7656H543.117ZM552.734 12.0234C552.734 11.8203 552.703 11.638 552.641 11.4766C552.583 11.3099 552.474 11.1589 552.312 11.0234C552.151 10.8828 551.924 10.7448 551.633 10.6094C551.341 10.474 550.964 10.3333 550.5 10.1875C549.984 10.0208 549.495 9.83333 549.031 9.625C548.573 9.41667 548.167 9.17448 547.812 8.89844C547.464 8.61719 547.188 8.29167 546.984 7.92188C546.786 7.55208 546.688 7.1224 546.688 6.63281C546.688 6.15885 546.792 5.72917 547 5.34375C547.208 4.95312 547.5 4.61979 547.875 4.34375C548.25 4.0625 548.693 3.84635 549.203 3.69531C549.719 3.54427 550.284 3.46875 550.898 3.46875C551.737 3.46875 552.469 3.61979 553.094 3.92188C553.719 4.22396 554.203 4.63802 554.547 5.16406C554.896 5.6901 555.07 6.29167 555.07 6.96875H552.742C552.742 6.63542 552.672 6.34375 552.531 6.09375C552.396 5.83854 552.188 5.63802 551.906 5.49219C551.63 5.34635 551.281 5.27344 550.859 5.27344C550.453 5.27344 550.115 5.33594 549.844 5.46094C549.573 5.58073 549.37 5.74479 549.234 5.95312C549.099 6.15625 549.031 6.38542 549.031 6.64062C549.031 6.83333 549.078 7.00781 549.172 7.16406C549.271 7.32031 549.417 7.46615 549.609 7.60156C549.802 7.73698 550.039 7.86458 550.32 7.98438C550.602 8.10417 550.927 8.22135 551.297 8.33594C551.917 8.52344 552.461 8.73438 552.93 8.96875C553.404 9.20312 553.799 9.46615 554.117 9.75781C554.435 10.0495 554.674 10.3802 554.836 10.75C554.997 11.1198 555.078 11.5391 555.078 12.0078C555.078 12.5026 554.982 12.9453 554.789 13.3359C554.596 13.7266 554.318 14.0573 553.953 14.3281C553.589 14.599 553.154 14.8047 552.648 14.9453C552.143 15.0859 551.578 15.1562 550.953 15.1562C550.391 15.1562 549.836 15.0833 549.289 14.9375C548.742 14.7865 548.245 14.5599 547.797 14.2578C547.354 13.9557 547 13.5703 546.734 13.1016C546.469 12.6328 546.336 12.0781 546.336 11.4375H548.688C548.688 11.7917 548.742 12.0911 548.852 12.3359C548.961 12.5807 549.115 12.7786 549.312 12.9297C549.516 13.0807 549.755 13.1901 550.031 13.2578C550.312 13.3255 550.62 13.3594 550.953 13.3594C551.359 13.3594 551.693 13.3021 551.953 13.1875C552.219 13.0729 552.414 12.9141 552.539 12.7109C552.669 12.5078 552.734 12.2786 552.734 12.0234Z" fill="white"/>
</svg>
